HIERARCHY
ROOT hip
{
  OFFSET 0 0 0
  CHANNELS 6 Xposition Yposition Zposition Zrotation Yrotation Xrotation
  JOINT abdomen
  {
    OFFSET 0 20.6881 -0.73152
    CHANNELS 3 Zrotation Xrotation Yrotation
    JOINT chest
    {
      OFFSET 0 11.7043 -0.48768
      CHANNELS 3 Zrotation Xrotation Yrotation
      JOINT neck
      {
        OFFSET 0 22.1894 -2.19456
        CHANNELS 3 Zrotation Xrotation Yrotation
        JOINT head
        {
          OFFSET -0.24384 7.07133 1.2192
          CHANNELS 3 Zrotation Xrotation Yrotation
          JOINT leftEye
          {
            OFFSET 4.14528 8.04674 8.04672
            CHANNELS 3 Zrotation Xrotation Yrotation
            End Site
            {
              OFFSET 1 0 0
            }
          }
          JOINT rightEye
          {
            OFFSET -3.6576 8.04674 8.04672
            CHANNELS 3 Zrotation Xrotation Yrotation
            End Site
            {
              OFFSET 1 0 0
            }
          }
        }
      }
      JOINT rCollar
      {
        OFFSET -2.68224 19.2634 -4.8768
        CHANNELS 3 Zrotation Xrotation Yrotation
        JOINT rShldr
        {
          OFFSET -8.77824 -1.95073 1.46304
          CHANNELS 3 Zrotation Xrotation Yrotation
          JOINT rForeArm
          {
            OFFSET -28.1742 -1.7115 0.48768
            CHANNELS 3 Zrotation Xrotation Yrotation
            JOINT rHand
            {
              OFFSET -22.5879 0.773209 7.07136
              CHANNELS 3 Zrotation Xrotation Yrotation
              JOINT rThumb1
              {
                OFFSET -1.2192 -0.487915 3.41376
                CHANNELS 3 Zrotation Xrotation Yrotation
                JOINT rThumb2
                {
                  OFFSET -3.37035 -0.52449 3.41376
                  CHANNELS 3 Zrotation Xrotation Yrotation
                  End Site
                  {
                    OFFSET -1.78271 -1.18214 1.43049
                  }
                }
              }
              JOINT rIndex1
              {
                OFFSET -7.75947 0.938293 5.60832
                CHANNELS 3 Zrotation Xrotation Yrotation
                JOINT rIndex2
                {
                  OFFSET -2.54057 -0.884171 1.56538
                  CHANNELS 3 Zrotation Xrotation Yrotation
                  End Site
                  {
                    OFFSET -1.62519 -0.234802 1.16502
                  }
                }
              }
              JOINT rMid1
              {
                OFFSET -8.24714 1.18213 3.41376
                CHANNELS 3 Zrotation Xrotation Yrotation
                JOINT rMid2
                {
                  OFFSET -3.10165 -0.590103 1.0647
                  CHANNELS 3 Zrotation Xrotation Yrotation
                  End Site
                  {
                    OFFSET -2.48547 -0.328903 0.83742
                  }
                }
              }
              JOINT rRing1
              {
                OFFSET -8.82822 0.546677 1.51678
                CHANNELS 3 Zrotation Xrotation Yrotation
                JOINT rRing2
                {
                  OFFSET -2.60934 -0.819778 -0.0198488
                  CHANNELS 3 Zrotation Xrotation Yrotation
                  End Site
                  {
                    OFFSET -2.33842 -0.294052 0.168128
                  }
                }
              }
              JOINT rPinky1
              {
                OFFSET -8.27202 -0.0477905 -0.4584
                CHANNELS 3 Zrotation Xrotation Yrotation
                JOINT rPinky2
                {
                  OFFSET -1.82734 -0.647385 -0.700984
                  CHANNELS 3 Zrotation Xrotation Yrotation
                  End Site
                  {
                    OFFSET -1.69225 -0.51767 -0.607171
                  }
                }
              }
            }
          }
        }
      }
      JOINT lCollar
      {
        OFFSET 2.68224 19.2634 -4.8768
        CHANNELS 3 Zrotation Xrotation Yrotation
        JOINT lShldr
        {
          OFFSET 8.77824 -1.95073 1.46304
          CHANNELS 3 Zrotation Xrotation Yrotation
          JOINT lForeArm
          {
            OFFSET 28.1742 -1.7115 0.48768
            CHANNELS 3 Zrotation Xrotation Yrotation
            JOINT lHand
            {
              OFFSET 22.5879 0.773209 7.07136
              CHANNELS 3 Zrotation Xrotation Yrotation
              JOINT lThumb1
              {
                OFFSET 1.2192 -0.487915 3.41376
                CHANNELS 3 Zrotation Xrotation Yrotation
                JOINT lThumb2
                {
                  OFFSET 3.37035 -0.52449 3.41376
                  CHANNELS 3 Zrotation Xrotation Yrotation
                  End Site
                  {
                    OFFSET 1.78271 -1.18214 1.43049
                  }
                }
              }
              JOINT lIndex1
              {
                OFFSET 7.75947 0.938293 5.60832
                CHANNELS 3 Zrotation Xrotation Yrotation
                JOINT lIndex2
                {
                  OFFSET 2.54057 -0.884171 1.56538
                  CHANNELS 3 Zrotation Xrotation Yrotation
                  End Site
                  {
                    OFFSET 1.62519 -0.234802 1.16502
                  }
                }
              }
              JOINT lMid1
              {
                OFFSET 8.24714 1.18213 3.41376
                CHANNELS 3 Zrotation Xrotation Yrotation
                JOINT lMid2
                {
                  OFFSET 3.10165 -0.590103 1.0647
                  CHANNELS 3 Zrotation Xrotation Yrotation
                  End Site
                  {
                    OFFSET 2.48547 -0.328903 0.83742
                  }
                }
              }
              JOINT lRing1
              {
                OFFSET 8.82822 0.546677 1.51678
                CHANNELS 3 Zrotation Xrotation Yrotation
                JOINT lRing2
                {
                  OFFSET 2.60934 -0.819778 -0.0198488
                  CHANNELS 3 Zrotation Xrotation Yrotation
                  End Site
                  {
                    OFFSET 2.33842 -0.294052 0.168128
                  }
                }
              }
              JOINT lPinky1
              {
                OFFSET 8.27202 -0.0477905 -0.4584
                CHANNELS 3 Zrotation Xrotation Yrotation
                JOINT lPinky2
                {
                  OFFSET 1.82734 -0.647385 -0.700984
                  CHANNELS 3 Zrotation Xrotation Yrotation
                  End Site
                  {
                    OFFSET 1.69225 -0.51767 -0.607171
                  }
                }
              }
            }
          }
        }
      }
    }
  }
  JOINT rButtock
  {
    OFFSET -8.77824 4.35084 1.2192
    CHANNELS 3 Zrotation Xrotation Yrotation
    JOINT rThigh
    {
      OFFSET 0 -1.70687 -2.19456
      CHANNELS 3 Zrotation Xrotation Yrotation
      JOINT rShin
      {
        OFFSET 0 -36.8199 0.73152
        CHANNELS 3 Zrotation Xrotation Yrotation
        JOINT rFoot
        {
          OFFSET 0.73152 -45.1104 -5.12064
          CHANNELS 3 Zrotation Xrotation Yrotation
          End Site
          {
            OFFSET -1.1221 -3.69964 12.103
          }
        }
      }
    }
  }
  JOINT lButtock
  {
    OFFSET 8.77824 4.35084 1.2192
    CHANNELS 3 Zrotation Xrotation Yrotation
    JOINT lThigh
    {
      OFFSET 0 -1.70687 -2.19456
      CHANNELS 3 Zrotation Xrotation Yrotation
      JOINT lShin
      {
        OFFSET 0 -36.8199 0.73152
        CHANNELS 3 Zrotation Xrotation Yrotation
        JOINT lFoot
        {
          OFFSET -0.73152 -45.1104 -5.12064
          CHANNELS 3 Zrotation Xrotation Yrotation
          End Site
          {
            OFFSET 1.1221 -3.69964 12.103
          }
        }
      }
    }
  }
}
MOTION
Frames:	9
Frame Time:	0.00833333
52.4734 84.8839 -109.279 0.0 0.0 0.0 -0.194077 -0.000752048 -0.00553942 -0.0535363 -0.00112971 -0.00927448 -1.0767e-15 -7.95139e-16 3.72721e-17 -3.1526e-15 3.18055e-15 9.78393e-17 -0.0 0.0 0.0 -0.0 0.0 0.0 -5.48006e-16 -7.76503e-19 1.49089e-16 -8.78166e-15 2.11209e-16 1.39149e-15 -1.93119e-13 5.74488e-14 1.59028e-14 -2.20471e-12 -6.18717e-14 5.08889e-14 -5.20427e-12 -1.51336e-14 1.62208e-13 -8.98348e-12 -2.54444e-14 2.65576e-13 -5.19544e-12 -9.93923e-15 1.43125e-13 7.73091 5.47488 0.417314 -5.20443e-12 -1.51076e-14 1.59028e-13 2.90554 0.965183 0.102902 -5.20039e-12 -1.50082e-14 1.54257e-13 10.2786 0.731801 0.0259123 -5.20339e-12 -1.59028e-14 1.62208e-13 2.22167 -0.733487 -0.20892 -5.45345e-16 -7.76503e-19 -1.49089e-16 -1.34869e-14 3.29237e-16 -5.96354e-16 -1.92076e-13 -5.725e-14 0.0 -2.20999e-12 5.38955e-14 7.63333e-14 -5.20819e-12 -1.41289e-14 1.59028e-13 -8.99381e-12 -3.18055e-14 2.75118e-13 -5.21651e-12 -1.23246e-14 1.59028e-13 -7.73091 5.47488 -0.417314 -5.20866e-12 -1.32192e-14 1.55847e-13 -2.90554 0.965183 -0.102902 -5.21713e-12 -1.38155e-14 1.55847e-13 -10.2786 0.731801 -0.0259123 -5.20239e-12 -1.31198e-14 1.49486e-13 -2.22167 -0.733487 0.20892 -2.03217e-16 0.0 -3.88251e-19 0.355852 -2.82714 -0.0340694 -0.00665505 -0.431854 -0.0584472 -0.502543 3.25829 0.123799 2.03217e-16 0.0 3.88251e-19 -0.651363 -3.58303 0.0525572 0.00446003 0.937454 0.0381205 0.504971 2.64491 -0.111592
57.0452 83.6507 -113.381 -6.1092 79.384 -6.0462 -1.80355 3.08823 -1.61539 1.26355 -1.40909 -0.463582 -4.2297 3.38852 -3.99723 5.76769 3.7188 -7.7753 -0.0 0.0 0.0 -0.0 0.0 0.0 -1.65751e-16 1.18818e-14 4.36682e-14 23.0933 1.31315 -0.696205 -4.15983 -1.8783 6.51 0.00894106 2.09827 0.294179 -4.37485e-10 -7.9321e-10 6.53479e-11 -7.56436e-10 -1.37803e-09 1.17405e-10 -4.37479e-10 -7.93206e-10 6.53316e-11 7.73091 5.47488 0.417314 -4.37486e-10 -7.93209e-10 6.53456e-11 2.90554 0.965183 0.102902 -4.37483e-10 -7.9321e-10 6.53416e-11 10.2786 0.731801 0.0259123 -4.37488e-10 -7.9321e-10 6.53496e-11 2.22167 -0.733487 -0.20892 -1.51853e-16 1.18825e-14 4.33859e-14 -21.5903 5.55704 -0.521605 4.10773 -1.84467 -6.43929 -0.00362321 1.33546 -0.187503 -3.01071e-10 9.0373e-11 2.91174e-10 -5.18986e-10 1.56402e-10 5.05538e-10 -3.01077e-10 9.03762e-11 2.91176e-10 -7.73091 5.47488 -0.417314 -3.01068e-10 9.03752e-11 2.9117e-10 -2.90554 0.965183 -0.102902 -3.01079e-10 9.03751e-11 2.91173e-10 -10.2786 0.731801 -0.0259123 -3.01064e-10 9.03762e-11 2.91168e-10 -2.22167 -0.733487 0.20892 -2.03217e-16 0.0 -3.88251e-19 -3.16579 -7.26224 1.71699 0.00560335 8.78379 0.0886799 -0.446255 -0.671619 0.0671162 2.03217e-16 0.0 3.88251e-19 -0.220471 -4.7178 -0.0776492 -0.01829 6.52309 -0.0696844 0.496922 -0.459566 0.997755
57.1356 83.6779 -113.228 -5.4699 79.726 -5.5531 -3.32623 6.34271 -3.3358 2.63351 -2.89665 -0.945858 -8.18698 6.92238 -8.27256 12.957 7.41221 -16.1076 -0.0 0.0 0.0 -0.0 0.0 0.0 2.01701e-16 2.51096e-14 9.07638e-14 47.5466 2.71871 -1.4294 -8.09701 -3.78348 13.4152 -0.00511266 4.3219 0.607276 -9.01515e-10 -1.64422e-09 1.37037e-10 -1.55878e-09 -2.85649e-09 2.46134e-10 -9.01511e-10 -1.64421e-09 1.37024e-10 7.73091 5.47488 0.417314 -9.01517e-10 -1.64422e-09 1.37036e-10 2.90554 0.965183 0.102902 -9.01514e-10 -1.64422e-09 1.37033e-10 10.2786 0.731801 0.0259123 -9.01522e-10 -1.64422e-09 1.37041e-10 2.22167 -0.733487 -0.20892 2.26935e-16 2.51112e-14 9.04998e-14 -44.3025 11.4292 -1.09487 8.00348 -3.71781 -13.2695 0.00205728 2.74443 -0.385671 -6.12954e-10 1.85146e-10 6.03092e-10 -1.05656e-09 3.20418e-10 1.04705e-09 -6.12959e-10 1.85151e-10 6.03096e-10 -7.73091 5.47488 -0.417314 -6.12947e-10 1.8515e-10 6.03088e-10 -2.90554 0.965183 -0.102902 -6.12962e-10 1.8515e-10 6.03095e-10 -10.2786 0.731801 -0.0259123 -6.12948e-10 1.85152e-10 6.03091e-10 -2.22167 -0.733487 0.20892 -2.03217e-16 0.0 -3.88251e-19 -6.56814 -11.9438 3.63374 -0.0352434 18.5517 0.255672 -0.392376 -4.86252 0.0237091 2.03217e-16 0.0 3.88251e-19 0.214994 -5.92354 -0.213105 -0.0190404 12.4418 -0.187327 0.622426 -3.74024 2.19605
57.2597 83.7141 -113.149 -2.7263 80.225 -3.0385 -4.49661 9.23669 -4.89162 3.83058 -4.22393 -1.37551 -11.2639 9.96639 -12.1569 20.2792 10.3327 -23.6834 -0.0 0.0 0.0 -0.0 0.0 0.0 5.9876e-16 3.56469e-14 1.30706e-13 69.3758 3.93711 -2.09301 -11.2219 -5.34452 19.6082 -0.038148 6.29415 0.887295 -1.30205e-09 -2.3796e-09 1.95719e-10 -2.25134e-09 -4.13404e-09 3.51683e-10 -1.30205e-09 -2.3796e-09 1.95709e-10 7.73091 5.47488 0.417314 -1.30205e-09 -2.3796e-09 1.95719e-10 2.90554 0.965183 0.102902 -1.30205e-09 -2.3796e-09 1.95716e-10 10.2786 0.731801 0.0259123 -1.30206e-09 -2.3796e-09 1.95724e-10 2.22167 -0.733487 -0.20892 6.35132e-16 3.56491e-14 1.30456e-13 -64.456 16.6655 -1.62577 11.1011 -5.25498 -19.3926 0.0154068 4.00622 -0.563734 -8.92795e-10 2.71147e-10 8.73204e-10 -1.53897e-09 4.69271e-10 1.51606e-09 -8.92798e-10 2.71153e-10 8.73209e-10 -7.73091 5.47488 -0.417314 -8.92785e-10 2.71152e-10 8.73198e-10 -2.90554 0.965183 -0.102902 -8.92802e-10 2.71153e-10 8.73209e-10 -10.2786 0.731801 -0.0259123 -8.92789e-10 2.71155e-10 8.73206e-10 -2.22167 -0.733487 0.20892 -2.03217e-16 0.0 -3.88251e-19 -9.36755 -16.0745 5.38896 -0.125456 27.2145 0.42709 -0.356992 -8.53144 -0.0463768 2.03217e-16 0.0 3.88251e-19 0.625731 -6.98722 -0.339589 0.0017961 17.6942 -0.29803 0.842936 -6.65819 3.23798
57.3662 83.7454 -113.032 -0.9786 80.7154 -1.468 -5.15991 11.2576 -5.98219 4.64308 -5.15154 -1.67045 -13.1546 11.9772 -14.9044 25.8624 12.1054 -29.0298 -0.0 0.0 0.0 -0.0 0.0 0.0 1.06984e-15 3.9458e-14 1.52766e-13 84.576 4.68984 -2.57827 -13.1941 -6.32214 23.9463 -0.0721009 7.63858 1.08 -1.54383e-09 -2.82593e-09 2.21882e-10 -2.66943e-09 -4.90931e-09 3.99282e-10 -1.54383e-09 -2.82592e-09 2.21872e-10 7.73091 5.47488 0.417314 -1.54384e-09 -2.82592e-09 2.21882e-10 2.90554 0.965183 0.102902 -1.54384e-09 -2.82592e-09 2.2188e-10 10.2786 0.731801 0.0259123 -1.54385e-09 -2.82592e-09 2.21888e-10 2.22167 -0.733487 -0.20892 1.11685e-15 3.94603e-14 1.52518e-13 -78.444 20.3175 -1.99145 13.0576 -6.21856 -23.6765 0.0295407 4.90022 -0.690382 -1.09253e-09 3.35218e-10 1.0388e-09 -1.88349e-09 5.80213e-10 1.8038e-09 -1.09253e-09 3.35224e-10 1.0388e-09 -7.73091 5.47488 -0.417314 -1.09252e-09 3.35223e-10 1.03879e-09 -2.90554 0.965183 -0.102902 -1.09254e-09 3.35224e-10 1.0388e-09 -10.2786 0.731801 -0.0259123 -1.09252e-09 3.35226e-10 1.0388e-09 -2.22167 -0.733487 0.20892 -2.03217e-16 0.0 -3.88251e-19 -11.2782 -18.8839 6.58356 -0.223489 33.115 0.565834 -0.361506 -10.8954 -0.183661 2.03217e-16 0.0 3.88251e-19 0.985302 -7.69582 -0.442452 0.0289181 21.2809 -0.379055 1.0336 -8.68105 3.86292
57.4353 83.7672 -112.857 -0.8452 81.132 -1.4148 -5.26607 12.0832 -6.39761 4.93797 -5.53203 -1.77776 -13.8493 12.6783 -15.9489 28.1586 12.8144 -31.0579 -0.0 0.0 0.0 -0.0 0.0 0.0 3.91997e-15 1.7098e-14 1.46886e-13 90.4572 4.81231 -2.81238 -13.9192 -6.67285 25.6427 -0.0863955 8.09727 1.14621 -1.60005e-09 -2.82999e-09 1.78961e-10 -2.76674e-09 -4.91664e-09 3.25222e-10 -1.60005e-09 -2.82998e-09 1.7895e-10 7.73091 5.47488 0.417314 -1.60006e-09 -2.82998e-09 1.78961e-10 2.90554 0.965183 0.102902 -1.60005e-09 -2.82998e-09 1.78961e-10 10.2786 0.731801 0.0259123 -1.60006e-09 -2.82998e-09 1.78968e-10 2.22167 -0.733487 -0.20892 3.98158e-15 1.70995e-14 1.46616e-13 -83.9203 21.7482 -2.07693 13.7752 -6.56308 -25.3463 0.0366014 5.28285 -0.744727 -1.24442e-09 3.73736e-10 1.03219e-09 -2.14635e-09 6.47092e-10 1.79337e-09 -1.24443e-09 3.73743e-10 1.0322e-09 -7.73091 5.47488 -0.417314 -1.24441e-09 3.73741e-10 1.03219e-09 -2.90554 0.965183 -0.102902 -1.24443e-09 3.73742e-10 1.0322e-09 -10.2786 0.731801 -0.0259123 -1.24442e-09 3.73743e-10 1.0322e-09 -2.22167 -0.733487 0.20892 -2.03217e-16 0.0 -3.88251e-19 -12.2465 -19.8907 6.83534 -0.267072 35.1514 0.620683 -0.396269 -11.4558 -0.348111 2.03217e-16 0.0 3.88251e-19 1.29479 -7.92058 -0.483122 0.0417395 22.5462 -0.409455 1.05537 -9.46948 3.84246
57.4694 83.7886 -112.674 -0.9424 81.4969 -1.4678 -5.01503 12.0602 -6.31897 4.86801 -5.52137 -1.75027 -13.7901 12.4816 -15.7488 27.9188 12.9197 -30.671 -0.0 0.0 0.0 -0.0 0.0 0.0 8.36108e-15 -2.31578e-14 1.21187e-13 89.6754 4.4841 -2.86634 -13.8335 -6.62999 25.4412 -0.0821502 7.92376 1.12126 -1.52198e-09 -2.51993e-09 8.78165e-11 -2.63191e-09 -4.37851e-09 1.66193e-10 -1.52198e-09 -2.51993e-09 8.78022e-11 7.73091 5.47488 0.417314 -1.52198e-09 -2.51993e-09 8.78171e-11 2.90554 0.965183 0.102902 -1.52197e-09 -2.51993e-09 8.78175e-11 10.2786 0.731801 0.0259123 -1.52198e-09 -2.51993e-09 8.78235e-11 2.22167 -0.733487 -0.20892 8.43988e-15 -2.31576e-14 1.2088e-13 -83.3413 21.5935 -1.9502 13.6856 -6.5173 -25.1382 0.0365998 5.30008 -0.747157 -1.35909e-09 3.93757e-10 9.03824e-10 -2.34557e-09 6.8207e-10 1.57207e-09 -1.35909e-09 3.93764e-10 9.0383e-10 -7.73091 5.47488 -0.417314 -1.35908e-09 3.93762e-10 9.03814e-10 -2.90554 0.965183 -0.102902 -1.35909e-09 3.93761e-10 9.03824e-10 -10.2786 0.731801 -0.0259123 -1.35908e-09 3.93762e-10 9.03821e-10 -2.22167 -0.733487 0.20892 -2.03217e-16 0.0 -3.88251e-19 -12.6008 -19.618 6.38994 -0.254235 34.4279 0.603504 -0.443886 -10.7269 -0.533211 2.03217e-16 0.0 3.88251e-19 1.569 -7.79914 -0.480522 0.0388513 22.1528 -0.401054 0.935472 -9.37701 3.3575
57.4951 83.8206 -112.457 -2.207 81.8702 -2.6687 -4.64785 11.6867 -6.02003 4.65266 -5.33551 -1.66377 -13.403 11.9201 -15.0606 26.6547 12.7809 -29.3309 -0.0 0.0 0.0 -0.0 0.0 0.0 9.79789e-15 -4.3765e-14 9.2207e-14 86.2402 3.94345 -2.84595 -13.4235 -6.42963 24.4815 -0.0712205 7.50894 1.0616 -1.3315e-09 -2.14436e-09 1.50732e-11 -2.30263e-09 -3.72583e-09 3.80221e-11 -1.3315e-09 -2.14436e-09 1.50556e-11 7.73091 5.47488 0.417314 -1.3315e-09 -2.14436e-09 1.50737e-11 2.90554 0.965183 0.102902 -1.3315e-09 -2.14436e-09 1.50752e-11 10.2786 0.731801 0.0259123 -1.33151e-09 -2.14436e-09 1.508e-11 2.22167 -0.733487 -0.20892 9.8875e-15 -4.37662e-14 9.18665e-14 -80.3228 20.8164 -1.74802 13.2699 -6.31299 -24.1739 0.0335844 5.16571 -0.728032 -1.35596e-09 3.98139e-10 7.68144e-10 -2.34111e-09 6.89868e-10 1.33746e-09 -1.35597e-09 3.98146e-10 7.6815e-10 -7.73091 5.47488 -0.417314 -1.35595e-09 3.98143e-10 7.68134e-10 -2.90554 0.965183 -0.102902 -1.35596e-09 3.98141e-10 7.68141e-10 -10.2786 0.731801 -0.0259123 -1.35595e-09 3.98142e-10 7.68137e-10 -2.22167 -0.733487 0.20892 -2.03217e-16 0.0 -3.88251e-19 -12.675 -18.8161 5.75613 -0.220556 32.5963 0.55867 -0.514311 -9.44431 -0.830076 2.03217e-16 0.0 3.88251e-19 1.80267 -7.51805 -0.506075 0.030029 21.0796 -0.377161 0.781286 -8.91458 2.75272
57.5342 83.8529 -112.234 -3.0932 82.1648 -3.4742 -4.40311 11.4605 -5.77543 4.51108 -5.19038 -1.59407 -13.1181 11.528 -14.6393 25.8973 12.7495 -28.5065 -0.0 0.0 0.0 -0.0 0.0 0.0 3.63513e-15 -7.17954e-15 7.64824e-14 84.1608 3.42855 -2.85683 -13.1725 -6.30574 23.9036 -0.0647904 7.24372 1.02355 -1.05053e-09 -1.95188e-09 2.7356e-11 -1.81661e-09 -3.38951e-09 5.65359e-11 -1.05053e-09 -1.95188e-09 2.73369e-11 7.73091 5.47488 0.417314 -1.05054e-09 -1.95188e-09 2.7356e-11 2.90554 0.965183 0.102902 -1.05053e-09 -1.95188e-09 2.73583e-11 10.2786 0.731801 0.0259123 -1.05054e-09 -1.95188e-09 2.73623e-11 2.22167 -0.733487 -0.20892 3.72015e-15 -7.1811e-15 7.61345e-14 -78.4873 20.3802 -1.60496 13.0065 -6.18003 -23.5757 0.0319252 5.09351 -0.717756 -1.15447e-09 3.89739e-10 7.39613e-10 -1.99291e-09 6.75209e-10 1.28709e-09 -1.15448e-09 3.89745e-10 7.39619e-10 -7.73091 5.47488 -0.417314 -1.15447e-09 3.89741e-10 7.39603e-10 -2.90554 0.965183 -0.102902 -1.15448e-09 3.89739e-10 7.39608e-10 -10.2786 0.731801 -0.0259123 -1.15446e-09 3.8974e-10 7.39603e-10 -2.22167 -0.733487 0.20892 -2.03217e-16 0.0 -3.88251e-19 -12.8281 -18.242 5.43384 -0.19958 31.3089 0.528992 -0.619362 -8.34362 -1.33037 2.03217e-16 0.0 3.88251e-19 1.99141 -7.26388 -0.631088 0.0246275 20.3057 -0.360858 0.684526 -8.59577 2.37041
